<?xml version="1.0" encoding="UTF-8"?>
<svg xmlns="http://www.w3.org/2000/svg" xmlns:xlink="http://www.w3.org/1999/xlink" viewBox="0 0 964.4 999.76">
  <defs>
    <style>
      .cls-1, .cls-2, .cls-3, .cls-4, .cls-5, .cls-6, .cls-7, .cls-8, .cls-9, .cls-10, .cls-11, .cls-12, .cls-13, .cls-14, .cls-15, .cls-16, .cls-17, .cls-18, .cls-19, .cls-20, .cls-21, .cls-22, .cls-23, .cls-24, .cls-25, .cls-26, .cls-27, .cls-28, .cls-29, .cls-30, .cls-31, .cls-32, .cls-33, .cls-34, .cls-35, .cls-36, .cls-37, .cls-38, .cls-39, .cls-40, .cls-41, .cls-42, .cls-43, .cls-44, .cls-45, .cls-46, .cls-47, .cls-48, .cls-49, .cls-50, .cls-51, .cls-52 {
        stroke-width: 0px;
      }

      .cls-1, .cls-8, .cls-53, .cls-41, .cls-51 {
        opacity: .3;
      }

      .cls-1, .cls-8, .cls-41, .cls-51 {
        mix-blend-mode: multiply;
      }

      .cls-1, .cls-9 {
        fill: #d8dee8;
      }

      .cls-2 {
        fill: url(#linear-gradient-38);
      }

      .cls-3 {
        fill: url(#linear-gradient-12);
      }

      .cls-4 {
        fill: url(#linear-gradient-17);
      }

      .cls-5 {
        fill: url(#linear-gradient-19);
      }

      .cls-6 {
        fill: url(#linear-gradient-33);
      }

      .cls-7 {
        fill: url(#linear-gradient);
      }

      .cls-8 {
        fill: url(#linear-gradient-29);
      }

      .cls-10 {
        fill: #fcfdfe;
      }

      .cls-11 {
        opacity: .48;
      }

      .cls-11, .cls-54 {
        mix-blend-mode: soft-light;
      }

      .cls-11, .cls-48 {
        fill: #fff;
      }

      .cls-55 {
        opacity: .5;
      }

      .cls-12 {
        fill: url(#linear-gradient-21);
      }

      .cls-13 {
        fill: #f4f7fa;
      }

      .cls-56 {
        fill: url(#linear-gradient-6);
      }

      .cls-57 {
        isolation: isolate;
      }

      .cls-14 {
        fill: url(#linear-gradient-42);
      }

      .cls-15 {
        fill: url(#linear-gradient-15);
      }

      .cls-16 {
        fill: #97a6b7;
      }

      .cls-17 {
        fill: url(#linear-gradient-11);
      }

      .cls-18, .cls-58 {
        fill: url(#linear-gradient-5);
      }

      .cls-19 {
        fill: url(#linear-gradient-31);
      }

      .cls-20 {
        fill: url(#linear-gradient-34);
      }

      .cls-59 {
        clip-path: url(#clippath-1);
      }

      .cls-21 {
        fill: url(#linear-gradient-41);
      }

      .cls-22 {
        fill: url(#linear-gradient-40);
      }

      .cls-23 {
        fill: url(#linear-gradient-13);
      }

      .cls-24 {
        fill: url(#linear-gradient-23);
      }

      .cls-25 {
        fill: url(#linear-gradient-25);
      }

      .cls-26 {
        fill: url(#linear-gradient-43);
      }

      .cls-27 {
        fill: url(#linear-gradient-16);
      }

      .cls-28 {
        fill: url(#linear-gradient-22);
      }

      .cls-29 {
        fill: url(#linear-gradient-35);
      }

      .cls-30 {
        fill: url(#linear-gradient-32);
      }

      .cls-31 {
        fill: url(#linear-gradient-20);
      }

      .cls-32 {
        fill: url(#linear-gradient-14);
      }

      .cls-33 {
        fill: url(#linear-gradient-2);
      }

      .cls-34 {
        fill: #26264f;
      }

      .cls-54 {
        opacity: .6;
      }

      .cls-35 {
        fill: url(#linear-gradient-45);
      }

      .cls-36 {
        fill: url(#linear-gradient-7);
      }

      .cls-37 {
        fill: url(#linear-gradient-39);
      }

      .cls-38 {
        fill: url(#linear-gradient-3);
      }

      .cls-60 {
        clip-path: url(#clippath);
      }

      .cls-39 {
        fill: url(#linear-gradient-9);
      }

      .cls-40 {
        fill: url(#linear-gradient-27);
      }

      .cls-41 {
        fill: url(#linear-gradient-44);
      }

      .cls-42 {
        fill: url(#linear-gradient-36);
      }

      .cls-43 {
        fill: url(#linear-gradient-8);
      }

      .cls-44 {
        fill: url(#linear-gradient-24);
      }

      .cls-45 {
        fill: url(#linear-gradient-26);
      }

      .cls-46 {
        fill: url(#linear-gradient-18);
      }

      .cls-47 {
        fill: url(#linear-gradient-30);
      }

      .cls-49 {
        fill: url(#linear-gradient-28);
      }

      .cls-50 {
        fill: url(#linear-gradient-10);
      }

      .cls-51 {
        fill: url(#linear-gradient-37);
      }

      .cls-52 {
        fill: url(#linear-gradient-4);
      }
    </style>
    <linearGradient id="linear-gradient" x1="226.15" y1="106.17" x2="789.67" y2="340.05" gradientTransform="translate(69.95 2.12) rotate(.85)" gradientUnits="userSpaceOnUse">
      <stop offset="0" stop-color="#ff9085"/>
      <stop offset="1" stop-color="#fb6fbb"/>
    </linearGradient>
    <linearGradient id="linear-gradient-2" x1="293.3" y1="-16.69" x2="828.4" y2="205.39" xlink:href="#linear-gradient"/>
    <linearGradient id="linear-gradient-3" x1="484.2" y1="272" x2="905.91" y2="447.02" gradientTransform="translate(69.95 2.12) rotate(.85)" gradientUnits="userSpaceOnUse">
      <stop offset="0" stop-color="#e38ddd"/>
      <stop offset="1" stop-color="#9571f6"/>
    </linearGradient>
    <linearGradient id="linear-gradient-4" x1="530.79" y1="173.01" x2="939.65" y2="342.7" xlink:href="#linear-gradient-3"/>
    <linearGradient id="linear-gradient-5" x1="621.27" y1="935.71" x2="-111.86" y2="-331.99" gradientUnits="userSpaceOnUse">
      <stop offset="0" stop-color="#aa80f9"/>
      <stop offset="1" stop-color="#6165d7"/>
    </linearGradient>
    <clipPath id="clippath">
      <path class="cls-18" d="M306.68,730.25c-4.35,15-13.25,36.17-22.52,60.45l254.95-29.98c-47.41-67.42-107.07-135.59-83.91-280.81,10.87-68.15,54.39-194.48,5.65-257.98-55.53-72.34-113.04-19.35-146.83-77.81C261.21,52.75,159.13,6.63,82.16,79.59,6.19,151.6,56.27,327.25,224.88,489.01c107.81,129.75,104.51,162.89,81.81,241.23Z"/>
    </clipPath>
    <linearGradient id="linear-gradient-6" x1="76.14" y1="343.77" x2="459.09" y2="974.21" gradientTransform="matrix(1,0,0,1,0,0)" xlink:href="#linear-gradient-3"/>
    <linearGradient id="linear-gradient-7" x1="76.14" y1="343.77" x2="459.09" y2="974.21" gradientTransform="matrix(1,0,0,1,0,0)" xlink:href="#linear-gradient-3"/>
    <clipPath id="clippath-1">
      <path class="cls-36" d="M229.4,450.81c15.15,116.97,67.1,71.73,120.55,77.16,70.35,79.92,85.5,159.96,3.94,240.21l-101.78-3.21c-37.31,2.64-82.19-3.58-85.55-53.29-3.79-56.22,5.25-93.27-61.06-113.3-66.31-20.03-99.3-66.93-80.45-126.9,19.83-63.11-52.72-136.5-11.37-182.09,72.06-79.43,199.95,39.6,215.72,161.4Z"/>
    </clipPath>
    <linearGradient id="linear-gradient-8" x1="359.95" y1="799.67" x2="839.36" y2="217.03" gradientTransform="matrix(1,0,0,1,0,0)" xlink:href="#linear-gradient"/>
    <linearGradient id="linear-gradient-9" x1="260.24" y1="717.62" x2="739.65" y2="134.98" gradientTransform="matrix(1,0,0,1,0,0)" xlink:href="#linear-gradient"/>
    <linearGradient id="linear-gradient-10" x1="145.54" y1="623.25" x2="624.95" y2="40.61" gradientTransform="matrix(1,0,0,1,0,0)" xlink:href="#linear-gradient"/>
    <linearGradient id="linear-gradient-11" x1="160.81" y1="635.81" x2="640.22" y2="53.17" gradientTransform="matrix(1,0,0,1,0,0)" xlink:href="#linear-gradient"/>
    <linearGradient id="linear-gradient-12" x1="340.71" y1="783.84" x2="820.13" y2="201.2" gradientTransform="matrix(1,0,0,1,0,0)" xlink:href="#linear-gradient"/>
    <linearGradient id="linear-gradient-13" x1="273.15" y1="728.25" x2="752.56" y2="145.61" gradientTransform="matrix(1,0,0,1,0,0)" xlink:href="#linear-gradient"/>
    <linearGradient id="linear-gradient-14" x1="190.47" y1="660.22" x2="669.88" y2="77.58" gradientTransform="matrix(1,0,0,1,0,0)" xlink:href="#linear-gradient"/>
    <linearGradient id="linear-gradient-15" x1="171.25" y1="644.4" x2="650.66" y2="61.76" gradientTransform="matrix(1,0,0,1,0,0)" xlink:href="#linear-gradient"/>
    <linearGradient id="linear-gradient-16" x1="219.53" y1="684.13" x2="698.94" y2="101.49" gradientTransform="matrix(1,0,0,1,0,0)" xlink:href="#linear-gradient"/>
    <linearGradient id="linear-gradient-17" x1="315.05" y1="762.72" x2="794.46" y2="180.08" gradientTransform="matrix(1,0,0,1,0,0)" xlink:href="#linear-gradient"/>
    <linearGradient id="linear-gradient-18" x1="422.56" y1="851.19" x2="901.97" y2="268.55" gradientTransform="matrix(1,0,0,1,0,0)" xlink:href="#linear-gradient"/>
    <linearGradient id="linear-gradient-19" x1="410.66" y1="841.39" x2="890.07" y2="258.75" gradientTransform="matrix(1,0,0,1,0,0)" xlink:href="#linear-gradient"/>
    <linearGradient id="linear-gradient-20" x1="238.45" y1="699.69" x2="717.86" y2="117.05" gradientTransform="matrix(1,0,0,1,0,0)" xlink:href="#linear-gradient"/>
    <linearGradient id="linear-gradient-21" x1="302.85" y1="752.69" x2="782.26" y2="170.04" gradientTransform="matrix(1,0,0,1,0,0)" xlink:href="#linear-gradient"/>
    <linearGradient id="linear-gradient-22" x1="381.4" y1="817.32" x2="860.82" y2="234.68" gradientTransform="matrix(1,0,0,1,0,0)" xlink:href="#linear-gradient"/>
    <linearGradient id="linear-gradient-23" x1="401.55" y1="833.9" x2="880.96" y2="251.26" gradientTransform="matrix(1,0,0,1,0,0)" xlink:href="#linear-gradient"/>
    <linearGradient id="linear-gradient-24" x1="370.13" y1="515.1" x2="44.51" y2="619.6" gradientUnits="userSpaceOnUse">
      <stop offset="0" stop-color="#fcb148"/>
      <stop offset=".05" stop-color="#fdb946"/>
      <stop offset=".14" stop-color="#fec144"/>
      <stop offset=".32" stop-color="#ffc444"/>
      <stop offset=".48" stop-color="#fdb946"/>
      <stop offset=".78" stop-color="#f99c4c"/>
      <stop offset=".87" stop-color="#f8924f"/>
      <stop offset="1" stop-color="#f8924f"/>
    </linearGradient>
    <linearGradient id="linear-gradient-25" x1="633.54" y1="190.97" x2="342.85" y2="832.3" gradientUnits="userSpaceOnUse">
      <stop offset="0" stop-color="#ffdb44"/>
      <stop offset="1" stop-color="#feef06"/>
    </linearGradient>
    <linearGradient id="linear-gradient-26" x1="580.07" y1="868.14" x2="523.98" y2="561.72" xlink:href="#linear-gradient-24"/>
    <linearGradient id="linear-gradient-27" x1="461.14" y1="372.17" x2="692.3" y2="862.87" xlink:href="#linear-gradient-24"/>
    <linearGradient id="linear-gradient-28" x1="408.42" y1="467.76" x2="620.18" y2="467.76" xlink:href="#linear-gradient-25"/>
    <linearGradient id="linear-gradient-29" x1="393.14" y1="403.93" x2="623.83" y2="893.63" xlink:href="#linear-gradient-24"/>
    <linearGradient id="linear-gradient-30" x1="3412.86" y1="1253.95" x2="3429.62" y2="1268.85" gradientTransform="translate(-2711.59 193.98) rotate(-8.05)" gradientUnits="userSpaceOnUse">
      <stop offset="0" stop-color="#444b8c"/>
      <stop offset="1" stop-color="#26264f"/>
    </linearGradient>
    <linearGradient id="linear-gradient-31" x1="2767.99" y1="1358.21" x2="2767.99" y2="1329.02" gradientTransform="translate(-1836.03 -524.22) rotate(2.85)" gradientUnits="userSpaceOnUse">
      <stop offset="0" stop-color="#ffc444"/>
      <stop offset="1" stop-color="#f36f56"/>
    </linearGradient>
    <linearGradient id="linear-gradient-32" x1="3414.55" y1="1252.06" x2="3431.3" y2="1266.96" xlink:href="#linear-gradient-30"/>
    <linearGradient id="linear-gradient-33" x1="3342.2" y1="976.31" x2="3358.95" y2="991.21" gradientTransform="translate(-2609.08)" xlink:href="#linear-gradient-30"/>
    <linearGradient id="linear-gradient-34" x1="2715.87" y1="1053.24" x2="2715.87" y2="1024.05" gradientTransform="translate(-1712.28 -564.47) rotate(11.1)" xlink:href="#linear-gradient-31"/>
    <linearGradient id="linear-gradient-35" x1="3343.88" y1="974.41" x2="3360.64" y2="989.32" gradientTransform="translate(-2609.08)" xlink:href="#linear-gradient-30"/>
    <linearGradient id="linear-gradient-36" x1="824.19" y1="815.05" x2="893.42" y2="815.05" gradientUnits="userSpaceOnUse">
      <stop offset="0" stop-color="#311944"/>
      <stop offset="1" stop-color="#6b3976"/>
    </linearGradient>
    <linearGradient id="linear-gradient-37" x2="887.78" xlink:href="#linear-gradient-36"/>
    <linearGradient id="linear-gradient-38" x1="952.25" y1="862.43" x2="761.81" y2="828.06" gradientUnits="userSpaceOnUse">
      <stop offset="0" stop-color="#311944"/>
      <stop offset=".74" stop-color="#5c3169"/>
      <stop offset="1" stop-color="#6b3976"/>
    </linearGradient>
    <linearGradient id="linear-gradient-39" x1="717.06" y1="542.39" x2="630.01" y2="511.51" xlink:href="#linear-gradient-5"/>
    <linearGradient id="linear-gradient-40" x1="661.75" y1="539.12" x2="726.15" y2="642.58" gradientTransform="matrix(1,0,0,1,0,0)" xlink:href="#linear-gradient-31"/>
    <linearGradient id="linear-gradient-41" x1="937.43" y1="831.37" x2="853.44" y2="644.73" gradientTransform="matrix(1,0,0,1,0,0)" xlink:href="#linear-gradient"/>
    <linearGradient id="linear-gradient-42" x1="3770.92" y1="369.32" x2="3844.8" y2="462.27" gradientTransform="translate(-2749.71 -900.45) rotate(14.93)" xlink:href="#linear-gradient-31"/>
    <linearGradient id="linear-gradient-43" x1="3761.74" y1="348.64" x2="3844.22" y2="452.42" gradientTransform="translate(-2749.71 -900.45) rotate(14.93)" xlink:href="#linear-gradient-31"/>
    <linearGradient id="linear-gradient-44" x1="717.77" y1="577.7" x2="836.2" y2="690.79" gradientTransform="matrix(1,0,0,1,0,0)" xlink:href="#linear-gradient"/>
    <linearGradient id="linear-gradient-45" x1="863.32" y1="864.72" x2="779.33" y2="678.08" gradientTransform="matrix(1,0,0,1,0,0)" xlink:href="#linear-gradient"/>
  </defs>
  <g class="cls-57">
    <g id="Illustration">
      <g>
        <path class="cls-13" d="M732,104.55c32.54,45.55-4.26,120.35,43.66,154.36,46.65,33.11,102.96-22.56,146.9,5.9,65.18,42.22,55.43,238.64-37.93,361.6-28.08,36.98-51.71,51.5-61.8,93.09-21.68,89.31,58.36,141.46,43.7,185.67-33.02,99.55-555.94,188.3-769.25-107.6C-2.34,659.39-19.14,458.49,66.95,304.87,222.53,27.28,658.99,2.34,732,104.55Z"/>
        <g>
          <g class="cls-53">
            <path class="cls-7" d="M614.52,87.07l-451.43-13.86c-34.97-1.07-63.98,30.21-64.57,69.88h0c-.59,39.67,27.48,72.29,62.46,72.86l451.53,7.28c31.61.51,57.53-29.37,58.08-66.75h0c.55-37.37-24.46-68.45-56.06-69.42Z"/>
            <path class="cls-33" d="M808.05,159.36c-.54,36.63-25.58,65.93-56.1,65.44-30.73-.5-55.34-30.96-54.79-68.04.55-37.08,26.05-66.36,56.77-65.42,30.51.94,54.66,31.39,54.12,68.02Z"/>
          </g>
          <g class="cls-55">
            <path class="cls-38" d="M789.99,258.3l-339.82-4.29c-26.02-.33-47.59,24.04-48.04,54.43h0c-.45,30.39,20.39,55.05,46.42,55.08l339.88.37c24.07.03,43.84-23.48,44.27-52.5h0c.43-29.02-18.64-52.79-42.71-53.1Z"/>
            <path class="cls-52" d="M937.93,311.86c-.42,28.54-19.64,51.66-43.04,51.63-23.52-.03-42.33-23.4-41.9-52.21.43-28.81,19.92-51.92,43.44-51.63,23.39.29,41.93,23.67,41.5,52.21Z"/>
          </g>
        </g>
        <g>
          <g>
            <path class="cls-58" d="M306.68,730.25c-4.35,15-13.25,36.17-22.52,60.45l254.95-29.98c-47.41-67.42-107.07-135.59-83.91-280.81,10.87-68.15,54.39-194.48,5.65-257.98-55.53-72.34-113.04-19.35-146.83-77.81C261.21,52.75,159.13,6.63,82.16,79.59,6.19,151.6,56.27,327.25,224.88,489.01c107.81,129.75,104.51,162.89,81.81,241.23Z"/>
            <g class="cls-60">
              <g class="cls-54">
                <g>
                  <path class="cls-10" d="M414.23,760.42c-6.83-32.71-14.93-63.21-23.51-95.51l-2.86-10.77c-5.09-15.3-9.69-30.52-14.14-45.24-10.05-33.24-19.54-64.63-34.19-96.74-.63-1.93-1.15-3.84-1.7-5.86-1.96-7.2-3.99-14.65-10.08-20.67l-.18-.27C263.22,312.04,162.05,149.07,26.85,1l1.1-1c135.28,148.16,236.54,311.24,300.94,484.7,6.29,6.28,8.45,14.21,10.36,21.22.55,2,1.06,3.89,1.65,5.71,14.66,32.12,24.17,63.56,34.23,96.85,4.45,14.71,9.05,29.92,14.14,45.24l2.87,10.81c8.58,32.32,16.69,62.84,23.53,95.59l-1.46.3Z"/>
                  <path class="cls-10" d="M370.48,603.17c-24.03-83.68-6.33-195.42,12.74-274.43,20.65-85.56,47.33-152.22,47.6-152.88l1.38.56c-.27.66-26.91,67.24-47.54,152.7-19.03,78.83-36.68,190.29-12.75,273.65l-1.43.41Z"/>
                  <path class="cls-10" d="M216.43,252.73c-30.44-87.38-42.16-186.13-46.01-218.58-.74-6.21-1.22-10.31-1.45-11.07l1.42-.43c.26.85.65,4.09,1.51,11.33,3.84,32.41,15.54,131.04,45.93,218.26l-1.41.49Z"/>
                  <path class="cls-10" d="M286.55,386.73c-50.59-68.78-226.05-94.89-227.81-95.15l.21-1.47c1.77.26,177.85,26.47,228.8,95.74l-1.2.88Z"/>
                </g>
              </g>
            </g>
          </g>
          <g>
            <path class="cls-56" d="M229.4,450.81c15.15,116.97,67.1,71.73,120.55,77.16,70.35,79.92,85.5,159.96,3.94,240.21l-101.78-3.21c-37.31,2.64-82.19-3.58-85.55-53.29-3.79-56.22,5.25-93.27-61.06-113.3-66.31-20.03-99.3-66.93-80.45-126.9,19.83-63.11-52.72-136.5-11.37-182.09,72.06-79.43,199.95,39.6,215.72,161.4Z"/>
            <g class="cls-59">
              <g class="cls-54">
                <g>
                  <path class="cls-10" d="M278.88,657.5c-47.13-40.77-89.28-87.29-125.28-138.25-36.31-51.4-65.87-106.64-87.87-164.19-12.61-33-22.77-66.94-30.18-100.87l1.49-.32c7.4,33.86,17.53,67.72,30.12,100.65,21.95,57.43,51.46,112.56,87.69,163.85,35.93,50.86,77.99,97.28,125.03,137.97l-1,1.15Z"/>
                  <path class="cls-10" d="M178.79,734.5l-.85-1.27c17.46-11.65,38.51-21.6,62.55-29.59,11.46-3.81,22.93-6.78,34.11-8.84l.28,1.5c-11.11,2.04-22.52,5-33.9,8.78-23.92,7.95-44.84,17.84-62.19,29.41Z"/>
                  <path class="cls-10" d="M177,550.39c-57.52-43.89-166.93-26.39-168.03-26.21l-.25-1.5c1.11-.18,111.15-17.79,169.2,26.5l-.92,1.21Z"/>
                  <path class="cls-10" d="M97.98,427.49c-24.83-77.89,24.07-177.02,24.57-178.01l1.36.68c-.49.99-49.12,99.58-24.48,176.87l-1.45.46Z"/>
                </g>
              </g>
            </g>
          </g>
        </g>
        <g>
          <g>
            <path class="cls-16" d="M948.08,913.31l-917.9-7.99v23.65c0,6.42,4,11.88,9.43,12.85l259.56,46.58c3.08.55,6.2.7,9.31.44l629.64-53.11c5.62-.47,9.97-5.95,9.97-12.55v-9.87Z"/>
            <g>
              <path class="cls-16" d="M652.59,874.97l-612.32,43.27c-10.96.77-19.87-7.45-19.87-18.38v-437.73c0-10.93,8.91-19.78,19.87-19.78h612.32c9.03,0,16.33,8.01,16.33,17.88v395.7c0,9.88-7.3,18.4-16.33,19.04Z"/>
              <path class="cls-16" d="M662.36,874.97l-612.32,43.27c-10.96.77-19.87-7.45-19.87-18.38v-437.73c0-10.93,8.91-19.78,19.87-19.78h612.32c9.03,0,16.33,8.01,16.33,17.88v395.7c0,9.88-7.3,18.4-16.33,19.04Z"/>
              <path class="cls-48" d="M643.28,847.07l-570.31,37.59c-8.92.59-16.16-6.17-16.16-15.09v-383.24c0-8.92,7.25-16.18,16.16-16.22l570.31-2.36c7.45-.03,13.47,6.53,13.47,14.65v349.06c0,8.12-6.02,15.11-13.47,15.6Z"/>
              <path class="cls-48" d="M377.82,454.31c0,4.07-3.15,7.37-7.04,7.39-3.9.01-7.06-3.28-7.06-7.36s3.16-7.38,7.06-7.39c3.89,0,7.04,3.29,7.04,7.36Z"/>
              <path class="cls-11" d="M514.83,754.91c-47.2-25.4-84.32,6.78-120.14-24.97-21.72-19.25-11.05-33.61-37.78-62.37-29.6-31.86-48.86-21.15-78.61-49.83-37.61-36.26-18.8-64.47-51.19-90.5-39.3-31.58-81.68-2.35-119.09-32.64-16.14-13.06-24.99-32.06-29.61-52.25h-36.6c-6.41,0-11.62,5.2-11.62,11.61v453.75c0,6.41,5.21,11.24,11.62,10.79l624.05-44.3c3.06-.22,5.78-2.01,7.52-4.6-45.68-1.66-73.75-16.98-91.69-32.81-35.1-30.97-29.01-61.51-66.85-81.87Z"/>
            </g>
            <path class="cls-9" d="M647.08,873L30.17,918.55l268.98,48.27c3.08.55,6.2.7,9.31.44l639.61-53.95-291.19-40c-3.26-.45-6.54-.55-9.81-.31Z"/>
            <polygon class="cls-1" points="120.19 919.7 633.78 881.21 792.73 902.87 283.57 944.01 120.19 919.7"/>
          </g>
          <g>
            <polygon class="cls-9" points="641.72 576.72 71.35 585.42 71.35 481.74 641.72 481.74 641.72 576.72"/>
            <polygon class="cls-9" points="460.86 761.65 99.51 777.42 99.51 603.47 460.86 596.98 460.86 761.65"/>
            <polygon class="cls-9" points="617.9 642.35 481.98 645.84 481.98 596.6 617.9 594.16 617.9 642.35"/>
            <polygon class="cls-9" points="617.9 754.8 481.98 760.73 481.98 663.28 617.9 659.42 617.9 754.8"/>
            <polygon class="cls-9" points="617.9 776.88 99.51 801.34 99.51 842.66 617.9 815.04 617.9 776.88"/>
          </g>
        </g>
        <g>
          <g>
            <g>
              <path class="cls-43" d="M269.63,917.29c9.43,12.38,6.97,31.29-5.51,42.18-12.51,10.9-30.4,9.69-39.86-2.74-9.47-12.42-6.95-31.38,5.58-42.25,12.51-10.84,30.35-9.58,39.79,2.8ZM234.02,948.25c5.4,7.09,15.61,7.79,22.75,1.57,7.13-6.21,8.55-17.02,3.16-24.09-5.39-7.07-15.58-7.79-22.73-1.59-7.15,6.2-8.58,17.02-3.18,24.11Z"/>
              <path class="cls-39" d="M208.84,788.26c9.42,12.36,6.92,31.16-5.6,41.91-12.55,10.78-30.46,9.46-39.91-2.94-9.45-12.4-6.89-31.24,5.68-41.97,12.55-10.71,30.41-9.36,39.84,3.01ZM173.11,818.85c5.39,7.08,15.61,7.83,22.78,1.69,7.16-6.14,8.59-16.87,3.21-23.93-5.38-7.06-15.59-7.83-22.75-1.71-7.17,6.13-8.63,16.88-3.24,23.96Z"/>
              <path class="cls-50" d="M51.99,745.56c9.47,12.43,6.84,31.3-5.9,42.07-12.76,10.8-30.9,9.44-40.4-3.03-9.51-12.47-6.81-31.38,5.98-42.14,12.77-10.73,30.85-9.33,40.32,3.1ZM15.65,776.2c5.42,7.12,15.77,7.89,23.06,1.74,7.28-6.15,8.79-16.92,3.38-24.03-5.41-7.1-15.74-7.89-23.03-1.76-7.3,6.14-8.83,16.93-3.4,24.05Z"/>
              <path class="cls-17" d="M181.03,619.71c9.38,12.31,6.86,30.89-5.63,41.44-12.52,10.57-30.37,9.14-39.78-3.21-9.41-12.35-6.84-30.97,5.7-41.5,12.52-10.51,30.32-9.03,39.7,3.28ZM145.39,649.72c5.37,7.04,15.56,7.87,22.7,1.84,7.14-6.02,8.58-16.63,3.22-23.66-5.36-7.03-15.53-7.87-22.68-1.86-7.16,6.01-8.62,16.64-3.25,23.69Z"/>
              <g>
                <polygon class="cls-3" points="381.77 721.23 389.03 730.75 311.64 797.56 260.87 921.82 249.73 917.49 301.85 790.13 381.77 721.23"/>
                <polygon class="cls-23" points="338.7 664.71 345.96 674.24 205.54 794.48 198.2 784.86 338.7 664.71"/>
                <polygon class="cls-32" points="295.63 608.2 302.89 617.72 210.47 696.21 101.52 711.72 50.73 754.58 43.35 744.9 97.07 699.64 206.02 684.2 295.63 608.2"/>
                <polygon class="cls-15" points="252.56 551.68 259.82 561.2 178.26 629.91 170.96 620.33 252.56 551.68"/>
              </g>
            </g>
            <g>
              <path class="cls-27" d="M696.69,96.36c-8.97-11.77-6.95-29.11,4.49-38.64,11.42-9.51,27.97-7.69,36.91,4.05,8.94,11.74,6.97,29.04-4.42,38.58-11.41,9.56-28.01,7.78-36.98-3.99ZM729.23,69.17c-5.11-6.7-14.56-7.74-21.08-2.3-6.53,5.44-7.67,15.34-2.56,22.05,5.12,6.72,14.59,7.74,21.11,2.29,6.51-5.45,7.64-15.33,2.53-22.04Z"/>
              <path class="cls-4" d="M757.15,217.85c-8.99-11.79-7-29.24,4.4-38.88,11.38-9.63,27.91-7.88,36.87,3.87,8.96,11.75,7.02,29.16-4.33,38.82-11.37,9.68-27.95,7.98-36.93-3.81ZM789.58,190.34c-5.12-6.71-14.56-7.7-21.06-2.2-6.5,5.51-7.63,15.46-2.5,22.19,5.13,6.73,14.58,7.7,21.08,2.18,6.49-5.52,7.6-15.46,2.48-22.17Z"/>
              <path class="cls-46" d="M902.05,261.27c-8.94-11.73-7.07-29.12,4.14-38.75,11.2-9.61,27.54-7.91,36.45,3.78,8.91,11.69,7.09,29.04-4.08,38.69-11.19,9.67-27.57,8-36.51-3.72ZM933.96,233.79c-5.09-6.68-14.43-7.65-20.82-2.15-6.4,5.5-7.46,15.42-2.36,22.11,5.1,6.69,14.45,7.65,20.84,2.13,6.38-5.51,7.43-15.42,2.34-22.1Z"/>
              <path class="cls-5" d="M786.42,377.42c-9.02-11.84-7.05-29.48,4.37-39.3,11.41-9.81,27.99-8.17,36.98,3.63,9,11.8,7.07,29.4-4.3,39.25-11.4,9.86-28.02,8.27-37.05-3.57ZM818.92,349.38c-5.14-6.74-14.61-7.67-21.12-2.06-6.52,5.61-7.63,15.68-2.49,22.43,5.15,6.76,14.64,7.67,21.14,2.05,6.5-5.62,7.61-15.67,2.47-22.41Z"/>
              <g>
                <polygon class="cls-31" points="594.63 277.23 587.57 267.97 660.69 206.45 706.51 92.31 716.93 96.7 670.03 213.7 594.63 277.23"/>
                <polygon class="cls-12" points="636.52 332.2 629.46 322.93 760.09 212.13 767.08 221.3 636.52 332.2"/>
                <polygon class="cls-28" points="678.41 387.17 671.35 377.9 757.37 304.34 857.84 291.77 902.95 252.95 909.9 262.07 862.22 303.16 761.76 315.79 678.41 387.17"/>
                <polygon class="cls-24" points="720.3 442.14 713.24 432.87 788.79 367.74 795.81 376.95 720.3 442.14"/>
              </g>
            </g>
          </g>
          <g>
            <path class="cls-44" d="M744.99,503.28c0,151.06-118.12,269.89-269.09,265.25-157.11-4.82-289.25-140.52-289.25-302.9S318.79,185.39,475.9,201.75c150.97,15.72,269.09,150.48,269.09,301.54Z"/>
            <path class="cls-25" d="M785.78,490.26c0,151.06-118.12,269.89-269.09,265.25-157.11-4.82-289.25-140.52-289.25-302.89s132.14-280.25,289.25-263.89c150.97,15.72,269.09,150.48,269.09,301.54Z"/>
            <path class="cls-45" d="M773.93,489.46c0,144.41-113.02,257.81-257.24,253.14-149.82-4.85-275.61-134.35-275.61-289.07s125.79-267.25,275.61-251.9c144.22,14.78,257.24,143.42,257.24,287.83Z"/>
            <path class="cls-40" d="M765.45,488.88c0,139.64-109.36,249.17-248.75,244.49-144.62-4.86-265.89-129.93-265.89-279.19s121.27-257.98,265.89-243.34c139.39,14.12,248.75,138.39,248.75,278.03Z"/>
            <path class="cls-49" d="M608.69,485.45c-7.7-9.2-19.67-15.88-35.98-20.05,7.5-2.85,13.88-6.23,19.18-10.14,5.28-3.89,9.59-8.16,12.95-12.81,3.35-4.64,5.79-9.64,7.35-14.99,1.55-5.35,2.33-10.91,2.33-16.69,0-10.61-1.69-20.26-5.09-28.97-3.4-8.72-8.85-16.22-16.36-22.5-7.55-6.31-17.35-11.36-29.44-15.15-4.03-1.26-8.37-2.33-12.99-3.25v-42.24l-32.27-1.62v40.35l-27.28-1.05v-40.67l-33.43-1.68v41.07l-35.93-1.38-13.33-.51v22.5l13.33.43v227.95l-13.33.44v22.5l13.33-.53,35.93-1.43v36.48l33.43-1.68v-36.13l27.28-1.08v35.84l32.27-1.62v-37.36c5.93-1.23,11.53-2.82,16.76-4.81,11.61-4.43,21.3-10.31,29.12-17.64,7.78-7.29,13.66-15.71,17.66-25.26,3.99-9.52,5.98-19.75,5.98-30.7,0-14.6-3.82-26.46-11.49-35.61ZM557.28,416.98c0,6.36-.95,11.63-2.85,15.81-1.9,4.19-4.67,7.47-8.31,9.84-3.65,2.38-8.09,4.04-13.32,4.98-5.25.94-11.17,1.39-17.75,1.35l-31.38-.17v-66.2l35.27.87c6.69.17,12.44.85,17.28,2.06,4.82,1.2,8.79,3.1,11.91,5.7,3.12,2.59,5.42,5.98,6.92,10.15,1.49,4.17,2.24,9.37,2.24,15.61ZM562.27,533.14c-1.03,4.1-2.92,7.79-5.68,11.09-2.76,3.31-6.59,6.04-11.5,8.21-4.93,2.18-11.29,3.36-19.11,3.57l-42.3,1.1v-66.76l41.95-.28c7.47-.05,13.64.63,18.51,2.05,4.86,1.41,8.75,3.42,11.68,6.04,2.93,2.61,4.99,5.83,6.2,9.65,1.2,3.82,1.8,8.12,1.8,12.91,0,4.19-.51,8.33-1.55,12.42Z"/>
            <path class="cls-8" d="M471.68,523.08c8.4-83.01,84.69-118.15,74.74-194.5-6.14-47.06-41.81-86.72-81.59-117.69-120.69,12.66-214.01,112.59-214.01,243.3,0,149.26,121.27,274.33,265.89,279.19,14.04.47,27.75-.26,41.09-2.01-57.43-57.15-93.32-136.98-86.1-208.29Z"/>
          </g>
        </g>
        <g>
          <path class="cls-47" d="M848.09,965.42c.48-2.63,8.96-5,13.16-1.49,2.09,1.75,3.52,5.29,2.31,6.89-.44.58,1.36,1.6-.36,1.62-5.71.07-15.58-4.42-15.11-7.03Z"/>
          <path class="cls-19" d="M857.37,965.44l8.8.44c-3.05-5.54.62-20.61.62-20.61l-9.5.28s.23,4.38.81,10.88c.2,2.23-.17,5.58-.73,9.02Z"/>
          <path class="cls-30" d="M856.21,965.3s10.5-2.42,11.64-.34c1.14,2.08,2.02,7.66-4.64,7.48-6.66-.18-7.58-5.38-6.99-7.14Z"/>
          <path class="cls-6" d="M736.72,984.47c.84-2.53,9.57-3.7,13.24.37,1.82,2.02,2.75,5.73,1.33,7.14-.52.52,1.12,1.78-.59,1.56-5.67-.73-14.81-6.55-13.98-9.07Z"/>
          <path class="cls-20" d="M747.04,986.91l8.64,1.7c-2.22-5.92,3.57-20.31,3.57-20.31l-9.44-1.09s-.4,4.36-.76,10.88c-.12,2.23-.97,5.5-2.01,8.82Z"/>
          <path class="cls-29" d="M744.77,985.49s10.74-.93,11.57,1.3c.83,2.22.93,7.87-5.65,6.76-6.57-1.11-6.76-6.39-5.92-8.05Z"/>
          <path class="cls-42" d="M824.19,682.65c2.35,40.26,5.65,82.12,10.09,125.44,5.14,50.19,11.39,98.14,18.4,143.72,8.64,2.96,16.62,0,16.62,0,0,0,10.1-16.54,17.81-60.51,4.95-28.21,5.29-27.86,5.34-32.78.28-24.83-8.43-32.02-10.09-54.21-1.54-20.53,5-26.68,8.9-49.8,3-17.77,4.13-43.68-5.34-77.53-20.58,1.89-41.16,3.78-61.74,5.67Z"/>
          <path class="cls-51" d="M824.19,682.65c2.35,40.26,5.65,82.12,10.09,125.44,5.14,50.19,11.39,98.14,18.4,143.72,8.64,2.96,16.62,0,16.62,0-.11-4.22-.4-10.58-1.29-18.25-2.34-20.37-6.06-26.16-6.44-38.66-.49-15.98,5.3-16.48,6.44-32.22,1.77-24.4-11.62-30.18-12.89-51.55-1.34-22.57,12.8-30,23.63-57.99,6.39-16.52,12.07-41.33,7.17-76.16-20.58,1.89-41.16,3.78-61.74,5.67Z"/>
          <path class="cls-2" d="M780.86,681.39c-11.83,39.84-23.29,89.34-29.68,146.87-6.2,55.84-6.09,105.43-3.56,146.24,3.76,1.05,7.52,2.1,11.28,3.15,21.86-22.87,29.67-43.9,32.65-59.25,4.41-22.71-2.24-30.42,3.56-56.1,1.33-5.91,3.21-12.25,24.93-54.84,20.73-40.64,24.98-46.55,28.49-61.14,5.01-20.83,3.69-39.31,1.78-51.69-23.15-4.41-46.3-8.82-69.45-13.24Z"/>
          <g>
            <path class="cls-34" d="M687.63,595.27l-37.1-86.9c-1.85-4.34.64-9.31,5.22-10.42l67.96-16.5c3.67-.89,7.45,1.04,8.87,4.53l34.12,83.52c1.7,4.16-.54,8.88-4.84,10.19l-64.98,19.88c-3.73,1.14-7.73-.71-9.26-4.31Z"/>
            <path class="cls-37" d="M689.31,591.09l-34.65-81.17c-1.73-4.06.59-8.69,4.88-9.74l63.48-15.42c3.43-.83,6.95.97,8.29,4.24l31.87,78.02c1.59,3.88-.5,8.29-4.52,9.52l-60.7,18.57c-3.49,1.07-7.22-.67-8.65-4.02Z"/>
          </g>
          <path class="cls-22" d="M667.92,567.23l-1.11-10.24-5.9-11.25c-.8-1.53-1.22-3.24-1.22-4.97v-11.17l7.12,16.47s4.68-4.23,6.46-5.12c1.78-.89,1.56,2.67.22,4.01-1.34,1.34.67,12.24-.67,13.36l.45,6.68-5.34,2.23Z"/>
          <path class="cls-21" d="M724.46,502c5.54-13.55,17.43-21.34,23.6-25.38,14.59-9.56,23.93-7.81,57.43-12.91,44.65-6.79,50-13.23,65-8.01,19.71,6.85,30.01,24.75,34.73,32.95,23.79,41.34-4.02,62.35,3.12,144.7,2.92,33.63,10.39,62.86-7.57,80.14-3.78,3.64-8.01,5.54-16.47,9.35-33.55,15.1-63.64,12.5-81.92,10.69-20.12-1.99-30.28-3.13-35.62-10.24-8.52-11.35.25-25.78,1.78-50.76,1.1-17.93-2.98-32.14-11.13-60.55-18.95-66.06-43.56-84.02-32.95-109.97Z"/>
          <g>
            <g>
              <path class="cls-14" d="M799.2,439.34c-2.03-7.24,1.52-13.95,2.3-15.39,3.28-6.05,4.12-6.88,5.68-7.92l2.18-1.34s.13-.05.26-.1c1.4-.5,6.15-.64,7.12-.44,3.08.66,6.36,13.2,5.42,30.93.13.68.25,1.36.37,2.04.48,2.8.87,5.55,1.17,8.23.28,2.57,3.93,2.51,6.5,2.34,10.46-.67,15.58.22,16.03,1.78.83,2.92-11.58,12.47-26.9,14.61-20.57.15-37.3-2.04-35.5-5.28.8-1.44,16.73-5.6,21.21-9.73,4.1-3.78,3.77-7.68,4.11-10.47-1.24-.65-8.46-3.94-9.95-9.28Z"/>
              <path class="cls-34" d="M802.98,409.65c.02,5.49,2.61,11.36,3.93,12.3.17.12,1.13.88,1.99,2.17.12.18.22.38.31.65,1.2,3.46-4.3,7.54-3.24,9.09.77,1.12,4.51-.38,4.96.59.42.91-2.69,2.81-2.21,3.9.36.83,2.27.07,3.48,1.34.6.63.43,1.13,1.06,3.06.36,1.09.86,2.28,1.26,2.95,1.9,3.23,7.28,4.4,8.31,3.11.29-.36.04-.66.33-1.87,0,0,.27-1.12,1.05-2.41,1.11-1.85,3.8-3.17,6.51-5.12,5.02-3.61,6.38-6.69,6.79-7.73.15-.37.24-.65.3-.85,1.3-4.05,1.31-10-.51-13.66-3.05-6.13-9.93-3.22-15.56-9.29-6.5-7-2.63-16.58-6.15-17.64-3.89-1.17-12.64,9.25-12.6,19.41Z"/>
              <path class="cls-26" d="M807.95,432.57c1.35-1.85,3.71-.11,3.73,2.28.01,2.39-2.31,4.88-4.56,4.41-2.25-.47-.98-4.2.83-6.69Z"/>
            </g>
            <path class="cls-34" d="M809.04,428.56l-3.12,4.06s-3.37,4.98-5.33,2.25c-1.61-2.23-2.02-2.18-2.12-2.09-.02.02-.02.04-.03.04-.03,0,.24-1.11.47-2.08-.83,1.19-1.98,3.13-2.67,5.74-.67,2.53-1.4,5.24.03,7.84.08.15,1.66,2.92,4.59,3.59,0,0,1.15.26,6.03-.59,0,0-5.33-3.87-5.42-4.79-.22-2.5,3.25-3.85,5.82-8.98.99-1.98,1.48-3.77,1.74-5Z"/>
          </g>
          <path class="cls-41" d="M819.74,709.92c-5.92-11.78,8.58-27.45-.89-45.41-8.05-15.26-22.66-11.84-29.38-25.82-8.12-16.89,9.54-29.51,8.9-55.21-.76-30.72-27.19-61.47-42.74-58.77-10.06,1.74-11.36,16.76-18.44,33.2,6.27,13.74,13.59,30.95,20.22,54.07,8.15,28.41,12.23,42.62,11.13,60.55-1.53,24.97-10.3,39.4-1.78,50.76,5.33,7.11,15.5,8.25,35.62,10.24,18.28,1.81,48.37,4.41,81.92-10.69,4.25-1.91,7.43-3.34,10.02-4.75-52.42,7.87-69.88,1.19-74.58-8.16Z"/>
          <path class="cls-35" d="M665.92,565.22c3.26-1.41,6.53-2.82,9.79-4.23,5.52,5.64,12.56,11.13,18.48,9.35,8.82-2.66,6.62-18.89,17.36-47.42,12.17-32.32,25.99-40.63,32.95-43.63,3.89-1.68,6.57-2.79,9.79-2,14.84,3.63,19.75,42.3,15.58,71.24-2.35,16.3-6.95,48.27-33.17,63.44-3.73,2.16-24.23,14.02-44.52,4.67-17.34-7.98-28.05-28.47-26.27-51.42Z"/>
        </g>
      </g>
    </g>
  </g>
</svg>